HIERARCHY
ROOT Beta:Hips
{
	OFFSET 0.00 0.00 0.00
	CHANNELS 6 Xposition Yposition Zposition Yrotation Xrotation Zrotation
	JOINT Beta:Spine
	{
		OFFSET	0.0000	9.2263	1.5771
		CHANNELS 3 Xrotation Yrotation Zrotation
		JOINT Beta:Spine1
		{
			OFFSET	0.0000	16.2540	-0.1656
			CHANNELS 3 Xrotation Yrotation Zrotation
			JOINT Beta:Spine2
			{
				OFFSET	0.0000	13.6396	-1.2923
				CHANNELS 3 Xrotation Yrotation Zrotation
				JOINT Beta:Neck
				{
					OFFSET	0.0000	13.8774	-4.3542
					CHANNELS 3 Xrotation Yrotation Zrotation
					JOINT Beta:Neck1
					{
						OFFSET	0.0000	4.3400	0.9269
						CHANNELS 3 Xrotation Yrotation Zrotation
						JOINT Beta:Head
						{
							OFFSET	0.0000	4.0266	0.8585
							CHANNELS 3 Xrotation Yrotation Zrotation
							End Site
							{
								OFFSET 0.0000 23.0297 0.1231
							}
						}
					}
				}
				JOINT Beta:LeftShoulder
				{
					OFFSET	6.1442	10.1870	-3.7932
					CHANNELS 3 Zrotation Xrotation Yrotation
					JOINT Beta:LeftArm
					{
						OFFSET	12.3191	-1.1130	-1.7935
						CHANNELS 3 Zrotation Xrotation Yrotation
						JOINT Beta:LeftForeArm
						{
							OFFSET	27.6870	0.0000	0.0000
							CHANNELS 3 Xrotation Zrotation Yrotation
							JOINT Beta:LeftHand
							{
								OFFSET	27.8738	0.0000	0.0000
								CHANNELS 3 Zrotation Yrotation Xrotation
								JOINT Beta:LeftHandThumb1
								{
									OFFSET	2.3785	-1.0029	2.6209
									CHANNELS 3 Zrotation Xrotation Yrotation
									JOINT Beta:LeftHandThumb2
									{
										OFFSET	3.3624	-1.0029	2.8398
										CHANNELS 3 Zrotation Xrotation Yrotation
										JOINT Beta:LeftHandThumb3
										{
											OFFSET	4.5018	-1.3445	2.1783
											CHANNELS 3 Zrotation Xrotation Yrotation
											End Site
											{
												OFFSET 2.6000 -1.0000 1.0000
											}
										}
									}
								}
								JOINT Beta:LeftHandMiddle1
								{
									OFFSET	10.4639	0.6148	0.4298
									CHANNELS 3 Zrotation Xrotation Yrotation
									JOINT Beta:LeftHandMiddle2
									{
										OFFSET	5.7921	0.0000	0.0000
										CHANNELS 3 Zrotation Xrotation Yrotation
										JOINT Beta:LeftHandMiddle3
										{
											OFFSET	3.7132	0.0000	0.0000
											CHANNELS 3 Zrotation Xrotation Yrotation
											End Site
											{
												OFFSET 2.3000 0.0000 0.0000
											}
										}
									}
								}
								JOINT Beta:LeftHandIndex1
								{
									OFFSET	10.3945	0.6148	2.7055
									CHANNELS 3 Zrotation Xrotation Yrotation
									JOINT Beta:LeftHandIndex2
									{
										OFFSET	5.5493	0.0000	0.0000
										CHANNELS 3 Zrotation Xrotation Yrotation
										JOINT Beta:LeftHandIndex3
										{
											OFFSET	3.3911	0.0000	0.0000
											CHANNELS 3 Zrotation Xrotation Yrotation
											End Site
											{
												OFFSET 2.5000 0.0000 0.0000
											}
										}
									}
								}
								JOINT Beta:LeftHandRing1
								{
									OFFSET	10.3252	0.3211	-1.8755
									CHANNELS 3 Zrotation Xrotation Yrotation
									JOINT Beta:LeftHandRing2
									{
										OFFSET	5.4452	0.0000	0.0000
										CHANNELS 3 Zrotation Xrotation Yrotation
										JOINT Beta:LeftHandRing3
										{
											OFFSET	3.7132	0.0000	0.0000
											CHANNELS 3 Zrotation Xrotation Yrotation
											End Site
											{
												OFFSET 2.0000 0.0000 0.0000
											}
										}
									}
								}
								JOINT Beta:LeftHandPinky1
								{
									OFFSET	10.0130	-0.0783	-3.9671
									CHANNELS 3 Zrotation Xrotation Yrotation
									JOINT Beta:LeftHandPinky2
									{
										OFFSET	3.6763	0.0000	0.0000
										CHANNELS 3 Zrotation Xrotation Yrotation
										JOINT Beta:LeftHandPinky3
										{
											OFFSET	2.8113	0.0000	0.0000
											CHANNELS 3 Zrotation Xrotation Yrotation
											End Site
											{
												OFFSET 2.9000 0.0000 0.0000
											}
										}
									}
								}
							}
						}
					}
				}
				JOINT Beta:RightShoulder
				{
					OFFSET	-6.1402	10.1870	-3.7932
					CHANNELS 3 Zrotation Xrotation Yrotation
					JOINT Beta:RightArm
					{
						OFFSET	-12.3231	-1.1130	-1.7935
						CHANNELS 3 Zrotation Xrotation Yrotation
						JOINT Beta:RightForeArm
						{
							OFFSET	-27.6870	0.0000	0.0000
							CHANNELS 3 Xrotation Zrotation Yrotation
							JOINT Beta:RightHand
							{
								OFFSET	-27.8738	0.0000	0.0000
								CHANNELS 3 Zrotation Yrotation Xrotation
								JOINT Beta:RightHandThumb1
								{
									OFFSET	-2.5178	-0.9367	2.5137
									CHANNELS 3 Zrotation Xrotation Yrotation
									JOINT Beta:RightHandThumb2
									{
										OFFSET	-3.2638	-1.0870	2.9669
										CHANNELS 3 Zrotation Xrotation Yrotation
										JOINT Beta:RightHandThumb3
										{
											OFFSET	-4.4165	-1.3703	2.1350
											CHANNELS 3 Zrotation Xrotation Yrotation
											End Site
											{
												OFFSET -2.6000 -1.0000 1.0000
											}
										}
									}
								}
								JOINT Beta:RightHandIndex1
								{
									OFFSET	-10.4665	0.4896	2.7120
									CHANNELS 3 Zrotation Xrotation Yrotation
									JOINT Beta:RightHandIndex2
									{
										OFFSET	-5.3768	0.0000	0.0000
										CHANNELS 3 Zrotation Xrotation Yrotation
										JOINT Beta:RightHandIndex3
										{
											OFFSET	-3.3855	0.0000	0.0000
											CHANNELS 3 Zrotation Xrotation Yrotation
											End Site
											{
												OFFSET -2.6000 0.0000 0.0000
											}
										}
									}
								}
								JOINT Beta:RightHandMiddle1
								{
									OFFSET	-10.7596	0.4896	0.4278
									CHANNELS 3 Zrotation Xrotation Yrotation
									JOINT Beta:RightHandMiddle2
									{
										OFFSET	-5.6168	0.0000	0.0000
										CHANNELS 3 Zrotation Xrotation Yrotation
										JOINT Beta:RightHandMiddle3
										{
											OFFSET	-3.7364	0.0000	0.0000
											CHANNELS 3 Zrotation Xrotation Yrotation
											End Site
											{
												OFFSET -2.3000 0.0000 0.0000
											}
										}
									}
								}
								JOINT Beta:RightHandRing1
								{
									OFFSET	-10.4702	0.3879	-1.9363
									CHANNELS 3 Zrotation Xrotation Yrotation
									JOINT Beta:RightHandRing2
									{
										OFFSET	-5.4013	0.0000	0.0000
										CHANNELS 3 Zrotation Xrotation Yrotation
										JOINT Beta:RightHandRing3
										{
											OFFSET	-3.3916	0.0000	0.0000
											CHANNELS 3 Zrotation Xrotation Yrotation
											End Site
											{
												OFFSET -2.2000 0.0000 0.0000
											}
										}
									}
								}
								JOINT Beta:RightHandPinky1
								{
									OFFSET	-9.9715	-0.1191	-3.9540
									CHANNELS 3 Zrotation Xrotation Yrotation
									JOINT Beta:RightHandPinky2
									{
										OFFSET	-3.6528	0.0000	0.0000
										CHANNELS 3 Zrotation Xrotation Yrotation
										JOINT Beta:RightHandPinky3
										{
											OFFSET	-2.7820	0.0000	0.0000
											CHANNELS 3 Zrotation Xrotation Yrotation
											End Site
											{
												OFFSET -2.9000 0.0000 0.0000
											}
										}
									}
								}
							}
						}
					}
				}
			}
		}
	}
	JOINT Beta:LeftUpLeg
	{
		OFFSET	9.6338	-3.2733	0.0000
		CHANNELS 3 Xrotation Yrotation Zrotation
		JOINT Beta:LeftLeg
		{
			OFFSET	0.0000	-41.7300	-1.7300
			CHANNELS 3 Xrotation Yrotation Zrotation
			JOINT Beta:LeftFoot
			{
				OFFSET	0.0126	-39.1900	-0.8477
				CHANNELS 3 Xrotation Yrotation Zrotation
				JOINT Beta:LeftToeBase
				{
					OFFSET	-0.1833	-12.1931	8.2823
					CHANNELS 3 Xrotation Yrotation Zrotation
					End Site
					{
						OFFSET 0.0000 0.0000 10.1681
					}
				}
			}
		}
	}
	JOINT Beta:RightUpLeg
	{
		OFFSET	-9.6338	-3.2733	0.0000
		CHANNELS 3 Xrotation Yrotation Zrotation
		JOINT Beta:RightLeg
		{
			OFFSET	0.0000	-41.7300	-1.7300
			CHANNELS 3 Xrotation Yrotation Zrotation
			JOINT Beta:RightFoot
			{
				OFFSET	0.0126	-39.1900	-0.8477
				CHANNELS 3 Xrotation Yrotation Zrotation
				JOINT Beta:RightToeBase
				{
					OFFSET	-0.1833	-12.1931	8.2823
					CHANNELS 3 Xrotation Yrotation Zrotation
					End Site
					{
						OFFSET 0.0032 0.0000 10.1681
					}
				}
			}
		}
	}
}
MOTION
Frames: 4
Frame Time: 0.0333333
9.2679 93.9271 82.8626 4.0396 15.0001 -5.5078 2.0627 -15.1907 8.3977 0.0987 -4.1964 2.7786 0.1199 -4.1508 2.8319 -5.1086 0.4902 3.6298 -0.0000 0.0000 -0.0000 -11.8171 10.0564 -5.6381 -10.7418 2.7070 -11.3599 -48.0895 41.1899 -47.4610 -0.0000 -0.0000 -23.5555 -15.3454 -14.3322 39.3446 4.4885 1.0243 -0.8203 -12.9521 -8.4533 4.4836 13.0292 -3.1379 10.7961 -25.7817 0.0019 -0.1128 -53.4947 0.0061 -0.0121 -41.0913 0.0037 -0.0099 -11.3181 6.3148 -7.9552 -44.3305 0.0043 -0.0105 -34.9230 0.0027 -0.0086 -36.2123 0.0034 1.6739 -69.2506 0.0097 -0.0141 -41.0134 0.0037 -0.0099 -36.6649 -5.2881 3.0665 -68.4752 0.0095 -0.0140 -31.6852 0.0022 -0.0079 30.9133 -0.0845 -4.3752 42.5149 1.2905 4.9985 0.0000 0.0000 6.5027 21.7863 8.5939 13.3383 -11.7047 -4.1629 8.0872 18.7805 9.9901 -37.1128 -19.1152 4.2341 -3.5976 12.0593 2.4692 4.1404 50.1699 0.0028 0.0061 7.1731 0.0001 0.0010 27.0478 0.0010 5.2488 45.6142 0.0024 0.0057 29.4036 0.0010 0.0039 36.9009 0.0018 2.7439 36.8491 0.0016 0.0047 37.6437 0.0016 0.0048 31.3850 -1.1041 3.8095 38.0330 0.0017 0.0049 8.9056 0.0001 0.0012 -9.7238 22.9991 7.7610 20.9710 -5.8635 0.1696 -8.1445 -10.2118 1.3509 -17.7132 0.0000 -0.0039 -47.4770 -12.2701 -5.2482 31.7408 -0.0587 -0.0030 -12.5585 -6.3935 10.1496 -3.4256 0.0000 -0.0000 
8.6219 93.3845 85.4058 9.2856 14.8080 -4.1232 2.6503 -14.1195 8.4846 0.1932 -3.9348 2.8543 0.2097 -3.9014 2.9075 -5.3093 0.0975 3.0282 -0.0000 0.0000 -0.0000 -14.3233 4.5845 -6.2324 -12.3743 2.8566 -11.0908 -50.0944 37.2530 -43.7286 0.0000 0.0000 -25.1138 -13.7246 -14.2387 37.1209 5.2095 1.0587 -0.5391 -13.8880 -8.5958 3.1086 12.7252 -2.8581 11.5918 -25.1224 0.0018 -0.1118 -51.2442 0.0056 -0.0117 -38.4138 0.0033 -0.0093 -10.4344 6.6146 -8.0882 -40.3694 0.0036 -0.0097 -33.6967 0.0025 -0.0083 -35.5740 0.0033 1.7217 -68.0996 0.0094 -0.0139 -39.8203 0.0035 -0.0096 -35.9641 -5.3804 3.1595 -68.0365 0.0094 -0.0140 -30.8261 0.0021 -0.0077 29.9317 0.3280 -3.3681 42.1578 1.7830 5.2691 0.0000 0.0000 6.1761 20.6346 9.5799 11.9462 -11.8441 -4.1660 8.1193 18.8092 9.9988 -37.1515 -19.0880 4.2453 -3.6316 11.7285 2.4663 4.1301 49.8720 0.0028 0.0061 7.0452 0.0001 0.0010 26.9600 0.0010 5.2488 45.2639 0.0023 0.0056 29.2293 0.0010 0.0039 37.2646 0.0018 2.7482 36.7795 0.0016 0.0047 37.4982 0.0016 0.0048 32.2108 -1.0820 3.8075 38.3805 0.0017 0.0049 8.8726 0.0001 0.0012 -8.5947 20.3953 8.2669 21.1743 -7.7715 0.2258 -7.1825 -10.8789 1.0664 -19.5098 0.0000 -0.0029 -47.7309 -14.2474 -7.9937 31.0333 2.3908 -0.0735 -13.1206 -8.1427 9.0685 -3.4840 0.0000 -0.0000 
7.8784 92.8046 88.1947 14.6481 14.3868 -2.7873 3.0140 -12.9573 8.5611 0.1528 -3.5851 2.8482 0.1647 -3.5484 2.8965 -5.1786 -0.2732 2.4035 -0.0000 0.0000 -0.0000 -16.1419 -0.7777 -6.4571 -13.9021 2.8861 -10.2335 -52.2800 32.3971 -40.3472 0.0000 0.0000 -26.8141 -11.9262 -14.0833 34.3762 5.8135 1.0940 -0.3019 -14.6816 -8.6847 1.9627 12.4666 -2.6312 12.2593 -24.6109 0.0017 -0.1110 -49.3596 0.0052 -0.0114 -36.0597 0.0029 -0.0088 -9.6934 6.8654 -8.1999 -36.8870 0.0030 -0.0090 -32.5807 0.0024 -0.0081 -35.1453 0.0032 1.7538 -67.2068 0.0092 -0.0138 -38.8211 0.0033 -0.0094 -35.6471 -5.4222 3.2016 -67.7418 0.0093 -0.0139 -30.1597 0.0020 -0.0076 28.7050 0.7973 -2.2371 42.0928 2.2003 4.6643 0.0000 0.0000 5.7613 19.5230 10.2276 11.4596 -11.8708 -4.1663 8.1251 18.8143 10.0006 -37.1585 -19.0829 4.2473 -3.6378 11.6648 2.4658 4.1281 49.8146 0.0028 0.0060 7.0205 0.0001 0.0010 27.3511 0.0010 5.2488 45.1964 0.0023 0.0056 29.1280 0.0010 0.0039 38.0770 0.0019 2.7579 37.0900 0.0016 0.0048 37.4702 0.0016 0.0048 33.4446 -1.0490 3.8044 39.1564 0.0018 0.0050 9.0267 0.0001 0.0012 -7.8166 17.3553 9.1749 21.8854 -9.6813 0.2838 -5.3148 -11.3549 0.9064 -22.3863 0.0000 -0.0034 -46.8255 -16.7602 -10.4943 29.7276 5.3396 -0.1599 -9.4869 -10.9992 6.5567 -3.5318 0.0000 -0.0000 
6.9309 92.1864 91.5061 20.0319 13.8565 -1.7147 3.5481 -11.3679 8.7637 -0.2057 -3.1835 2.7804 -0.1982 -3.1309 2.8399 -4.6302 -0.6937 1.7734 -0.0000 0.0000 -0.0000 -17.7356 -6.3085 -6.6041 -15.0733 2.7686 -8.9983 -54.8983 26.4514 -37.4008 -0.0000 -0.0000 -28.6621 -9.7140 -13.8776 30.9479 6.2825 1.1256 -0.1169 -15.3031 -8.7344 1.0773 12.2635 -2.4597 12.7781 -24.2670 0.0017 -0.1104 -47.8968 0.0050 -0.0112 -34.0877 0.0026 -0.0084 -9.1175 7.0600 -8.2867 -33.9697 0.0026 -0.0084 -31.5993 0.0022 -0.0079 -34.9506 0.0032 1.7684 -66.6064 0.0091 -0.0138 -38.0456 0.0032 -0.0093 -35.4398 -5.3395 3.0887 -67.6080 0.0093 -0.0139 -29.7116 0.0020 -0.0075 27.3813 1.2831 -1.0089 42.4203 2.5520 3.5476 -0.0000 -0.0000 5.2238 18.5377 10.4143 11.5231 -11.7542 -4.1608 8.0965 18.7877 9.9946 -37.1233 -19.1056 4.2370 -3.6067 11.9392 2.4681 4.1367 50.0617 0.0028 0.0061 7.1266 0.0001 0.0010 28.2283 0.0011 5.2488 45.4870 0.0024 0.0056 29.1081 0.0010 0.0038 39.2922 0.0020 2.7725 37.7864 0.0017 0.0048 37.5909 0.0016 0.0048 35.0402 -1.0063 3.8004 40.3171 0.0019 0.0051 9.3732 0.0001 0.0013 -7.4346 13.8840 10.6976 22.8091 -10.0163 0.2950 -1.6441 -13.2261 0.8815 -27.2002 0.0000 -0.0060 -44.4386 -20.1588 -11.9550 27.9526 7.9683 -0.2347 -2.9345 -14.4173 2.0079 -3.5370 -0.0000 -0.0000 
